<?xml version="1.0" encoding="UTF-8"?>
<svg id="Layer_2" data-name="Layer 2" xmlns="http://www.w3.org/2000/svg" viewBox="0 0 347 347">
  <defs>
    <style>
      .cls-1 {
        fill: #f2a933;
      }

      .cls-2 {
        fill: #04688e;
      }

      .cls-3 {
        fill: none;
      }

      .cls-4 {
        fill: #218a9a;
      }

      .cls-5 {
        letter-spacing: 0em;
      }

      .cls-6 {
        fill: #e87237;
      }

      .cls-7 {
        fill: #fff;
        font-family: Roboto-ExtraBoldItalic, Roboto;
        font-size: 82px;
        font-style: italic;
        font-variation-settings: 'wght' 800, 'wdth' 100;
        font-weight: 700;
      }
    </style>
  </defs>
  <g id="coloring">
    <g>
      <polyline class="cls-3" points="285.95 41.16 222.85 104.27 222.94 104.27"/>
      <line class="cls-3" x1="296.35" y1="296" x2="234" y2="233.65"/>
      <line class="cls-3" x1="278.81" y1="311.39" x2="215.31" y2="247.89"/>
      <path class="cls-4" d="M267.04,27.34l-65.98,65.98c-7.39-2.52-15.24-4.05-23.4-4.42-1.33-.07-2.67-.1-4.02-.1-1.71,0-3.4.05-5.08.16-21.33,1.25-40.54,10.36-54.77,24.48-5.57,5.53-10.38,11.81-14.24,18.69-6.95,12.31-10.91,26.52-10.91,41.67,0,1.35.03,2.69.1,4.02L17.35,249.21C6.23,226.33,0,200.64,0,173.5c0-39.6,13.27-76.11,35.61-105.31,4.73-6.19,9.88-12.06,15.39-17.54C81.29,20.43,122.7,1.35,168.56.07c1.64-.05,3.29-.07,4.94-.07,27.14,0,52.83,6.23,75.71,17.35,6.16,2.99,12.11,6.33,17.83,9.99Z"/>
      <path class="cls-2" d="M168.94,258.64v88.29c-50.92-1.42-96.36-24.79-127.19-60.98-4.29-5.04-8.29-10.32-12-15.83l65.16-65.15c2.54,6.43,5.84,12.48,9.79,18.03,14.49,20.37,37.73,34.09,64.24,35.64Z"/>
      <path class="cls-1" d="M215.69,247.89l63.5,63.5c-29.2,22.34-65.71,35.61-105.31,35.61-1.65,0-3.3-.02-4.94-.07v-88.29c1.68.11,3.37.16,5.08.16,15.14,0,29.36-3.96,41.67-10.91Z"/>
      <path class="cls-6" d="M347,173.5c0,47.82-19.35,91.12-50.65,122.5l-62.35-62.35c15.23-15.36,24.64-36.51,24.64-59.85,0-28.61-14.13-53.92-35.79-69.32l63.1-63.11c37.36,31.83,61.05,79.21,61.05,132.13Z"/>
    </g>
  </g>
  <g id="Layer_6" data-name="Layer 6">
    <text class="cls-7" transform="translate(119.39 197.46)"><tspan class="cls-5" x="0" y="0">T</tspan><tspan x="50.37" y="0">V</tspan></text>
  </g>
</svg>